<?xml version="1.0" standalone="no"?>
<!DOCTYPE svg PUBLIC "-//W3C//DTD SVG 20010904//EN"
 "http://www.w3.org/TR/2001/REC-SVG-20010904/DTD/svg10.dtd">
<svg version="1.0" xmlns="http://www.w3.org/2000/svg"
 width="500.000000pt" height="500.000000pt" viewBox="0 0 500.000000 500.000000"
 preserveAspectRatio="xMidYMid meet">
<metadata>
Created by potrace 1.14, written by Peter Selinger 2001-2017
</metadata>
<g transform="translate(0.000000,500.000000) scale(0.100000,-0.100000)"
fill="#000000" stroke="none">
<path d="M3299 3560 c-304 -38 -504 -257 -502 -550 1 -168 46 -288 147 -397
77 -83 160 -137 336 -217 234 -107 402 -210 473 -291 59 -66 80 -202 43 -278
-41 -84 -147 -159 -271 -192 -80 -21 -252 -20 -347 1 -76 17 -159 50 -193 78
-19 15 -19 15 10 16 42 1 108 33 133 64 69 89 47 240 -44 297 -53 32 -101 40
-164 28 -142 -29 -200 -191 -125 -345 46 -93 159 -172 300 -208 157 -40 374
-45 507 -11 266 68 438 280 438 540 0 158 -47 281 -145 380 -84 85 -156 129
-425 262 -129 63 -263 135 -297 159 -121 86 -171 180 -160 299 7 77 24 120 67
169 71 80 170 116 325 116 140 0 258 -34 323 -93 l22 -21 -52 -13 c-91 -24
-148 -96 -148 -188 0 -80 36 -142 100 -175 88 -44 181 -31 246 34 69 69 79
157 32 284 -39 105 -171 202 -321 237 -81 18 -225 26 -308 15z"/>
<path d="M954 3506 c-3 -8 -4 -23 -2 -33 4 -20 56 -30 156 -32 l52 -1 0 -889
0 -889 -102 -8 -103 -9 -3 -32 -3 -33 391 0 391 0 -3 33 -3 32 -102 9 -103 8
0 414 0 414 52 0 c77 0 131 -30 185 -104 57 -76 77 -117 153 -302 135 -329
190 -413 306 -470 58 -28 63 -29 252 -32 l192 -4 0 41 c0 32 -4 41 -17 41 -40
0 -96 23 -129 52 -55 48 -110 137 -186 297 -118 250 -139 288 -186 347 -55 67
-159 130 -235 140 -50 7 -75 24 -34 24 36 0 158 44 238 86 187 99 268 243 256
458 -6 113 -17 149 -67 224 -68 102 -206 180 -379 213 -33 7 -242 13 -508 16
-400 4 -454 3 -459 -11z m843 -96 c152 -52 210 -172 201 -415 -4 -103 -10
-142 -28 -190 -61 -159 -154 -219 -357 -232 l-93 -6 0 431 0 431 53 3 c81 6
167 -3 224 -22z"/>
</g>
</svg>
